<svg width="17" height="16" viewBox="0 0 17 16" fill="none" xmlns="http://www.w3.org/2000/svg">
<path d="M13.57 16H2.57001C2.03957 16 1.53087 15.7893 1.15579 15.4142C0.780721 15.0391 0.570007 14.5304 0.570007 14V3C0.570007 2.46957 0.780721 1.96086 1.15579 1.58579C1.53087 1.21071 2.03957 1 2.57001 1H6.57001V3H2.57001V14H13.57V10H15.57V14C15.57 14.5304 15.3593 15.0391 14.9842 15.4142C14.6091 15.7893 14.1004 16 13.57 16ZM8.27001 9.707L6.86001 8.293L13.153 2H9.57001V0H16.57V7H14.57V3.415L8.27001 9.707V9.707Z" fill="white"/>
</svg>
