<svg width="26" height="38" viewBox="0 0 26 38" fill="none" xmlns="http://www.w3.org/2000/svg">
<path d="M12.5798 18.8911C12.5798 15.4213 15.3928 12.5941 18.8769 12.5941C22.3467 12.5941 25.1739 15.407 25.1739 18.8911C25.1739 22.3609 22.3609 25.1881 18.8769 25.1881C15.4071 25.1881 12.5798 22.3609 12.5798 18.8911Z" fill="#1ABCFE"/>
<path d="M0 31.4709C0 28.0011 2.81296 25.1739 6.29704 25.1739H12.5941V31.4709C12.5941 34.9407 9.78111 37.768 6.29704 37.768C2.81296 37.768 0 34.955 0 31.4709Z" fill="#0ACF83"/>
<path d="M12.5798 0.014279V12.5941H18.8769C22.3467 12.5941 25.1739 9.78111 25.1739 6.29704C25.1739 2.82724 22.3609 0 18.8769 0H12.5798V0.014279Z" fill="#FF7262"/>
<path d="M0 6.3115C0 9.7813 2.81296 12.6085 6.29704 12.6085H12.5941V0.0144653H6.29704C2.81296 0.0144653 0 2.82743 0 6.3115Z" fill="#F24E1E"/>
<path d="M0 18.8911C0 22.3609 2.81296 25.1881 6.29704 25.1881H12.5941V12.5941H6.29704C2.81296 12.5941 0 15.4213 0 18.8911Z" fill="#A259FF"/>
</svg>
