<svg width="21" height="20" viewBox="0 0 21 20" fill="none" xmlns="http://www.w3.org/2000/svg">
<path d="M10.5007 0.000640776C4.6997 0.000640776 0 4.59314 0 10.2532C0 14.7855 3.00844 18.627 7.17785 19.9822C7.70486 20.079 7.89518 19.7618 7.89518 19.4875C7.89518 19.244 7.88927 18.6001 7.88534 17.7452C4.96287 18.363 4.34727 16.3669 4.34727 16.3669C3.86884 15.1853 3.17842 14.8681 3.17842 14.8681C2.22811 14.2344 3.25389 14.2478 3.25389 14.2478C4.30658 14.3177 4.86049 15.3019 4.86049 15.3019C5.79702 16.8706 7.31764 16.4169 7.91946 16.1529C8.01134 15.4922 8.28502 15.0379 8.58297 14.7848C6.25183 14.5279 3.80058 13.6468 3.80058 9.71814C3.80058 8.59613 4.20748 7.68237 4.88018 6.96469C4.76402 6.70773 4.40831 5.66325 4.97272 4.25097C4.97272 4.25097 5.85149 3.97735 7.8604 5.30249C8.71614 5.07525 9.59874 4.9587 10.4856 4.95583C11.3781 4.9616 12.27 5.07565 13.1107 5.30249C15.1078 3.97735 15.9859 4.25097 15.9859 4.25097C16.5497 5.66325 16.194 6.70709 16.0916 6.96469C16.7577 7.68237 17.1646 8.59677 17.1646 9.71814C17.1646 13.6558 14.7101 14.524 12.3763 14.7746C12.7412 15.0815 13.0832 15.7127 13.0832 16.6707C13.0832 18.0419 13.07 19.1466 13.07 19.4805C13.07 19.7471 13.2538 20.0675 13.7946 19.9643C17.9948 18.6231 21 14.7784 21 10.2526C21 4.5925 16.3003 0 10.4993 0L10.5007 0.000640776Z" fill="white"/>
</svg>
