<svg width="39" height="39" viewBox="0 0 39 39" fill="none" xmlns="http://www.w3.org/2000/svg">
<path d="M6.90625 0H32.0938C35.9125 0 39 3.0875 39 6.90625V31.1188C39 34.9375 35.9125 38.025 32.0938 38.025H6.90625C3.0875 38.025 0 34.9375 0 31.1188V6.90625C0 3.0875 3.0875 0 6.90625 0Z" fill="#330000"/>
<path d="M18.8501 22.75H12.8051L11.5701 26.5688C11.5376 26.715 11.4076 26.8125 11.2613 26.7963H8.20632C8.02757 26.7963 7.97882 26.6988 8.02757 26.5038L13.2601 11.44C13.3088 11.2775 13.3576 11.0987 13.4226 10.9037C13.4876 10.5625 13.5201 10.205 13.5201 9.8475C13.5038 9.76625 13.5688 9.685 13.6501 9.66875H17.8588C17.9888 9.66875 18.0538 9.7175 18.0701 9.79875L24.0013 26.5363C24.0501 26.715 24.0013 26.7963 23.8388 26.7963H20.4426C20.3288 26.8125 20.2151 26.7313 20.1826 26.6175L18.8501 22.75ZM13.7476 19.4513H17.8751C17.7776 19.11 17.6476 18.7038 17.5013 18.2813C17.3551 17.8425 17.2088 17.3713 17.0626 16.8838C16.9001 16.38 16.7538 15.8925 16.5913 15.3888C16.4288 14.885 16.2826 14.4138 16.1526 13.9425C16.0226 13.4875 15.9088 13.065 15.7951 12.675H15.7626C15.6163 13.3737 15.4376 14.0725 15.2101 14.7713C14.9663 15.5513 14.7226 16.3638 14.4626 17.1763C14.2351 18.005 13.9913 18.7688 13.7476 19.4513ZM27.6251 12.5125C27.0888 12.5287 26.5688 12.3175 26.1788 11.9437C25.8051 11.5375 25.6101 11.0012 25.6263 10.4487C25.6101 9.89625 25.8213 9.37625 26.2113 9.0025C26.6013 8.62875 27.1213 8.43375 27.6576 8.43375C28.2913 8.43375 28.7788 8.62875 29.1363 9.0025C29.4938 9.3925 29.6888 9.9125 29.6726 10.4487C29.6888 11.0012 29.4938 11.5375 29.1038 11.9437C28.7301 12.3337 28.1776 12.545 27.6251 12.5125ZM25.8051 26.6175V14.105C25.8051 13.9425 25.8701 13.8775 26.0163 13.8775H29.2338C29.3801 13.8775 29.4451 13.9588 29.4451 14.105V26.6175C29.4451 26.7963 29.3801 26.8775 29.2338 26.8775H26.0488C25.8863 26.8775 25.8051 26.78 25.8051 26.6175Z" fill="#FF9A00"/>
</svg>
