<svg width="38" height="38" viewBox="0 0 38 38" fill="none" xmlns="http://www.w3.org/2000/svg">
<path d="M0 0H38V38H0V0Z" fill="#F0DB4F"/>
<path d="M34.8898 28.9371C34.6117 27.2033 33.4811 25.7476 30.1326 24.3894C28.9695 23.8548 27.6727 23.4719 27.2862 22.5905C27.149 22.0776 27.1309 21.7886 27.2176 21.478C27.4668 20.4702 28.6697 20.1559 29.6233 20.4449C30.2374 20.6508 30.8189 21.124 31.1693 21.8789C32.8092 20.817 32.8056 20.8242 33.9507 20.0946C33.5317 19.4444 33.3077 19.1445 33.0332 18.8664C32.0471 17.7647 30.7033 17.1976 28.5541 17.241C28.182 17.2879 27.8064 17.3385 27.4343 17.3854C26.3615 17.6564 25.3393 18.2199 24.7396 18.9748C22.9408 21.0157 23.4537 24.5881 25.6427 26.0583C27.7991 27.6765 30.967 28.045 31.3716 29.5585C31.7653 31.4115 30.0098 32.0111 28.2651 31.798C26.9792 31.5307 26.264 30.8769 25.491 29.6885C24.0678 30.5121 24.0678 30.5121 22.6049 31.3537C22.9517 32.1123 23.3164 32.4554 23.898 33.1128C26.6505 35.905 33.5389 35.7678 34.7743 31.5415C34.8248 31.397 35.1572 30.4289 34.8898 28.9371ZM20.6579 17.4649H17.1035C17.1035 20.5352 17.0891 23.5839 17.0891 26.6542C17.0891 28.6084 17.1902 30.4 16.8724 30.9491C16.3522 32.0291 15.0049 31.8955 14.3908 31.6859C13.7659 31.3789 13.448 30.9418 13.0796 30.3242C12.9785 30.1472 12.9026 30.0099 12.8773 29.9991C11.9129 30.5879 10.952 31.1802 9.98755 31.7691C10.468 32.7552 11.176 33.6113 12.0826 34.1675C13.4372 34.9802 15.2577 35.2295 17.1613 34.7924C18.4003 34.4312 19.4695 33.6835 20.0294 32.5457C20.8385 31.0539 20.6651 29.2478 20.6579 27.2502C20.676 23.9921 20.6579 20.7339 20.6579 17.4649Z" fill="#323330"/>
</svg>
