<svg width="24" height="21" viewBox="0 0 24 21" fill="none" xmlns="http://www.w3.org/2000/svg">
<path d="M22.8215 19.6468H23.0467L22.6151 18.9939C22.8791 18.9939 23.0189 18.8262 23.0209 18.6209C23.0209 18.6129 23.0209 18.604 23.0199 18.5961C23.0199 18.3163 22.8513 18.1823 22.505 18.1823H21.9454V19.6468H22.1558V19.0088H22.4147L22.8215 19.6468ZM22.3998 18.8431H22.1558V18.348H22.4653C22.6251 18.348 22.8076 18.3738 22.8076 18.5832C22.8076 18.8233 22.6241 18.8431 22.3998 18.8431Z" fill="white"/>
<path d="M17.1553 17.1555H14.1719V12.4834C14.1719 11.3692 14.1521 9.93556 12.6202 9.93556C11.0665 9.93556 10.8284 11.149 10.8284 12.403V17.1555H7.84595V7.54745H10.7103V8.86007H10.75C11.3344 7.86196 12.4198 7.26568 13.5756 7.30834C16.5997 7.30834 17.1563 9.29761 17.1563 11.8842L17.1553 17.1555ZM4.47957 6.23384C3.52314 6.23384 2.74827 5.45896 2.74827 4.50253C2.74827 3.54609 3.52314 2.77122 4.47957 2.77122C5.43601 2.77122 6.21088 3.54609 6.21088 4.50253C6.21088 5.45896 5.43601 6.23384 4.47957 6.23384ZM5.97078 17.1555H2.9844V7.54745H5.97078V17.1555ZM18.6426 0.00112767H1.48525C0.674664 -0.00780171 0.00992153 0.642059 0 1.45265V18.6804C0.00992153 19.492 0.674664 20.1418 1.48525 20.1329H18.6426C19.4551 20.1428 20.1229 19.493 20.1338 18.6804V1.45166C20.1219 0.639082 19.4541 -0.0107782 18.6426 0.000135474" fill="white"/>
<path d="M22.4256 17.5305C21.6676 17.5374 21.0585 18.1585 21.0664 18.9165C21.0733 19.6745 21.6944 20.2837 22.4524 20.2758C23.2104 20.2688 23.8196 19.6477 23.8117 18.8897C23.8047 18.1417 23.1995 17.5374 22.4524 17.5305H22.4256ZM22.4574 20.118C21.7926 20.1289 21.2132 19.6001 21.2023 18.9354C21.1914 18.2706 21.7212 17.723 22.386 17.7121C23.0507 17.7011 23.5984 18.2309 23.6093 18.8957C23.6093 18.9026 23.6093 18.9086 23.6093 18.9155C23.6232 19.5654 23.1073 20.1041 22.4574 20.118H22.4266Z" fill="white"/>
</svg>
