<svg width="23" height="17" viewBox="0 0 23 17" fill="none" xmlns="http://www.w3.org/2000/svg">
<path d="M21.0856 0.00713316C20.9933 -0.00237772 20.9002 -0.00237772 20.8079 0.00713316H1.84754C1.72602 0.00900559 1.60531 0.0272266 1.48865 0.0613056L11.2736 9.80559L21.0856 0.00713316Z" fill="white"/>
<path d="M22.0877 0.94838L12.2283 10.7671C11.9746 11.0194 11.6313 11.161 11.2736 11.161C10.9158 11.161 10.5725 11.0194 10.3188 10.7671L0.547401 1.02287C0.517362 1.13327 0.501435 1.24704 0.5 1.36145V14.9046C0.5 15.2638 0.642686 15.6082 0.896669 15.8622C1.15065 16.1162 1.49513 16.2589 1.85431 16.2589H20.8147C21.1739 16.2589 21.5184 16.1162 21.7723 15.8622C22.0263 15.6082 22.169 15.2638 22.169 14.9046V1.36145C22.1636 1.22036 22.1362 1.08099 22.0877 0.94838V0.94838ZM2.78202 14.9046H1.84077V13.9362L6.7637 9.05394L7.71849 10.0087L2.78202 14.9046ZM20.8012 14.9046H19.8531L14.9167 10.0087L15.8715 9.05394L20.7944 13.9362L20.8012 14.9046Z" fill="white"/>
</svg>
