<svg width="39" height="38" viewBox="0 0 39 38" fill="none" xmlns="http://www.w3.org/2000/svg">
<path d="M6.85956 0H31.8768C35.6697 0 38.7364 3.06663 38.7364 6.85957V30.9084C38.7364 34.7013 35.6697 37.768 31.8768 37.768H6.85956C3.06663 37.768 0 34.7013 0 30.9084V6.85957C0 3.06663 3.06663 0 6.85956 0Z" fill="#001E36"/>
<path d="M8.71582 26.486V9.87778C8.71582 9.7648 8.76424 9.70023 8.87722 9.70023C9.1516 9.70023 9.40985 9.70023 9.78107 9.68409C10.1684 9.66795 10.5719 9.66795 11.0077 9.65181C11.4435 9.63567 11.9116 9.63567 12.4119 9.61953C12.9123 9.60339 13.3965 9.60339 13.8807 9.60339C15.2042 9.60339 16.3017 9.76479 17.2055 10.1037C18.0125 10.3781 18.755 10.83 19.3683 11.4272C19.8848 11.9437 20.2883 12.5732 20.5466 13.2672C20.7887 13.9451 20.9178 14.6391 20.9178 15.3654C20.9178 16.7535 20.595 17.8994 19.9494 18.8033C19.3038 19.7071 18.3999 20.385 17.3508 20.7724C16.2533 21.1759 15.0428 21.3211 13.7193 21.3211C13.3319 21.3211 13.0737 21.3211 12.9123 21.305C12.7509 21.2889 12.5249 21.2889 12.2182 21.2889V26.4699C12.2344 26.5828 12.1537 26.6797 12.0407 26.6958H8.9095C8.78038 26.6958 8.71582 26.6313 8.71582 26.486ZM12.2344 12.8153V18.2384C12.4603 18.2545 12.6702 18.2707 12.8638 18.2707H13.7193C14.3487 18.2707 14.9782 18.1738 15.5754 17.9801C16.0919 17.8349 16.5438 17.5282 16.8989 17.1247C17.2378 16.7212 17.3992 16.1724 17.3992 15.4623C17.4154 14.9619 17.2862 14.4616 17.028 14.0258C16.7536 13.6062 16.3663 13.2833 15.8982 13.1058C15.301 12.8637 14.6554 12.7669 13.9936 12.783C13.574 12.783 13.2028 12.783 12.8961 12.7991C12.5733 12.783 12.3474 12.7991 12.2344 12.8153ZM30.9892 17.2538C30.505 16.9956 29.9885 16.818 29.4398 16.7051C28.8426 16.5759 28.2454 16.4952 27.6321 16.4952C27.3093 16.4791 26.9703 16.5275 26.6637 16.6082C26.4538 16.6566 26.2763 16.7696 26.1633 16.931C26.0826 17.0601 26.0342 17.2215 26.0342 17.3668C26.0342 17.5121 26.0988 17.6573 26.1956 17.7865C26.3409 17.964 26.5345 18.1093 26.7444 18.2222C27.1156 18.4159 27.503 18.5935 27.8903 18.7549C28.7619 19.0454 29.6012 19.4489 30.3759 19.9331C30.9085 20.272 31.3443 20.724 31.651 21.2727C31.9092 21.7892 32.0383 22.3541 32.0222 22.9352C32.0383 23.6937 31.8124 24.4523 31.3927 25.0818C30.9408 25.7274 30.3113 26.2278 29.585 26.5183C28.7942 26.8572 27.8258 27.0348 26.6637 27.0348C25.9212 27.0348 25.1949 26.9702 24.4686 26.8249C23.9037 26.7281 23.3388 26.5506 22.8223 26.3085C22.7093 26.2439 22.6286 26.1309 22.6448 26.0018V23.1934C22.6448 23.145 22.6609 23.0804 22.7093 23.0481C22.7578 23.0159 22.8062 23.032 22.8546 23.0643C23.4841 23.4355 24.1458 23.6937 24.856 23.8551C25.4693 24.0166 26.1149 24.0973 26.7605 24.0973C27.3738 24.0973 27.8096 24.0165 28.1001 23.8713C28.3584 23.7583 28.5359 23.4839 28.5359 23.1934C28.5359 22.9674 28.4068 22.7576 28.1486 22.5478C27.8903 22.338 27.3577 22.0959 26.5668 21.7892C25.7437 21.4987 24.9851 21.1113 24.2749 20.6271C23.7746 20.272 23.3549 19.804 23.0483 19.2552C22.79 18.7387 22.6609 18.1738 22.6771 17.6089C22.6771 16.9149 22.8707 16.2531 23.2258 15.656C23.6293 15.0103 24.2265 14.4939 24.9205 14.1711C25.6791 13.7837 26.6314 13.6062 27.7773 13.6062C28.4391 13.6062 29.117 13.6546 29.7787 13.7514C30.2629 13.816 30.731 13.9451 31.1668 14.1226C31.2313 14.1388 31.2959 14.2033 31.3282 14.2679C31.3443 14.3325 31.3605 14.397 31.3605 14.4616V17.0924C31.3605 17.157 31.3282 17.2215 31.2798 17.2538C31.1345 17.2861 31.0538 17.2861 30.9892 17.2538Z" fill="#31A8FF"/>
</svg>
