<svg width="39" height="39" viewBox="0 0 39 39" fill="none" xmlns="http://www.w3.org/2000/svg">
<path d="M19.0292 0C9.29747 0 9.9051 4.22025 9.9051 4.22025L9.91591 8.59257H19.2027V9.90525H6.22733C6.22733 9.90525 0 9.199 0 19.0182C0 28.8378 5.43537 28.4895 5.43537 28.4895H8.67918V23.9329C8.67918 23.9329 8.5043 18.4975 14.0278 18.4975H23.2386C23.2386 18.4975 28.4136 18.5811 28.4136 13.4961V5.08832C28.4136 5.08832 29.1995 0 19.0292 0ZM13.9084 2.94029C14.1279 2.9401 14.3452 2.98317 14.548 3.06706C14.7508 3.15095 14.9351 3.27401 15.0902 3.42919C15.2454 3.58436 15.3685 3.76862 15.4524 3.9714C15.5363 4.17419 15.5793 4.39153 15.5791 4.61098C15.5793 4.83044 15.5363 5.04777 15.4524 5.25056C15.3685 5.45335 15.2454 5.6376 15.0902 5.79278C14.9351 5.94796 14.7508 6.07101 14.548 6.1549C14.3452 6.23879 14.1279 6.28187 13.9084 6.28167C13.689 6.28187 13.4717 6.23879 13.2689 6.1549C13.0661 6.07101 12.8818 5.94796 12.7267 5.79278C12.5715 5.6376 12.4484 5.45335 12.3645 5.25056C12.2806 5.04777 12.2376 4.83044 12.2378 4.61098C12.2376 4.39153 12.2806 4.17419 12.3645 3.9714C12.4484 3.76862 12.5715 3.58436 12.7267 3.42919C12.8818 3.27401 13.0661 3.15095 13.2689 3.06706C13.4717 2.98317 13.689 2.9401 13.9084 2.94029Z" fill="url(#paint0_linear_9116_230)"/>
<path d="M19.3056 38.1352C29.0373 38.1352 28.4297 33.915 28.4297 33.915L28.4189 29.5428H19.1319V28.2301H32.1073C32.1073 28.2301 38.3346 28.9364 38.3346 19.1168C38.3346 9.29744 32.8993 9.64569 32.8993 9.64569H29.6555V14.2022C29.6555 14.2022 29.8303 19.6376 24.3068 19.6376H15.096C15.096 19.6376 9.92106 19.5539 9.92106 24.6391V33.047C9.92106 33.047 9.13525 38.1352 19.3054 38.1352H19.3056ZM24.4263 35.1952C24.2069 35.1954 23.9895 35.1523 23.7868 35.0685C23.584 34.9846 23.3997 34.8615 23.2445 34.7063C23.0894 34.5512 22.9663 34.3669 22.8824 34.1641C22.7985 33.9613 22.7554 33.744 22.7556 33.5245C22.7554 33.3051 22.7985 33.0877 22.8824 32.8849C22.9663 32.6821 23.0893 32.4978 23.2445 32.3426C23.3997 32.1874 23.5839 32.0644 23.7867 31.9805C23.9895 31.8966 24.2069 31.8535 24.4263 31.8537C24.6458 31.8535 24.8631 31.8966 25.0659 31.9805C25.2687 32.0644 25.453 32.1874 25.6081 32.3426C25.7633 32.4978 25.8864 32.682 25.9703 32.8848C26.0541 33.0876 26.0972 33.3049 26.097 33.5244C26.0972 33.7438 26.0541 33.9612 25.9703 34.164C25.8864 34.3668 25.7633 34.551 25.6081 34.7062C25.453 34.8614 25.2687 34.9844 25.0659 35.0683C24.8631 35.1522 24.6458 35.1954 24.4263 35.1952Z" fill="url(#paint1_linear_9116_230)"/>
<defs>
<linearGradient id="paint0_linear_9116_230" x1="368.394" y1="343.004" x2="2268.14" y2="2223.8" gradientUnits="userSpaceOnUse">
<stop stop-color="#387EB8"/>
<stop offset="1" stop-color="#366994"/>
</linearGradient>
<linearGradient id="paint1_linear_9116_230" x1="553.671" y1="595.962" x2="2593.78" y2="2524.54" gradientUnits="userSpaceOnUse">
<stop stop-color="#FFE052"/>
<stop offset="1" stop-color="#FFC331"/>
</linearGradient>
</defs>
</svg>
