<svg width="30" height="30" viewBox="0 0 30 30" fill="none" xmlns="http://www.w3.org/2000/svg">
<path d="M15 9.4L20.326 13.2695M15 9.4L9.67412 13.2695M15 9.4V5.2M20.326 13.2695L18.2917 19.5305M20.326 13.2695L24.1 11.5M9.67412 13.2695L11.7084 19.5305M9.67412 13.2695L5.9 11.5M15 5.2L10.2741 1.81773M15 5.2L19.726 1.81773M18.2917 19.5305H11.7084M18.2917 19.5305L20.6 22.7M24.1 11.5L28.9308 16.4M24.1 11.5L25.5 5.73962M11.7084 19.5305L9.4 22.7M20.6 22.7L27.1271 22M20.6 22.7L17.1 28.8436M9.4 22.7L2.87295 22M9.4 22.7L12.9 28.8436M5.9 11.5L1.06913 16.4M5.9 11.5L4.5 5.73962M29 15C29 22.7319 22.7319 29 15 29C7.26801 29 1 22.7319 1 15C1 7.26801 7.26801 1 15 1C22.7319 1 29 7.26801 29 15Z" stroke="#2965F1" stroke-width="2" stroke-linecap="round" stroke-linejoin="round"/>
</svg>
