<svg width="20" height="28" viewBox="0 0 20 28" fill="none" xmlns="http://www.w3.org/2000/svg">
<path d="M10.078 14.0001C10.078 11.6091 12.0164 9.66101 14.4171 9.66101C16.808 9.66101 18.7561 11.5994 18.7561 14.0001C18.7561 16.3911 16.8177 18.3392 14.4171 18.3392C12.0265 18.3392 10.078 16.3907 10.078 14.0001Z" fill="#2965F1" stroke="white" stroke-width="0.5"/>
<path d="M14.4171 9.16106H10.078V0.48291H14.4171C16.8177 0.48291 18.7561 2.43101 18.7561 4.82198C18.7561 7.22262 16.808 9.16106 14.4171 9.16106Z" fill="#2965F1" stroke="white" stroke-width="0.5"/>
<path d="M0.910217 23.1678C0.910217 20.7768 2.84865 18.8287 5.24929 18.8287H9.58836V23.1678C9.58836 25.5588 7.64993 27.5069 5.24929 27.5069C2.84828 27.5069 0.910217 25.5688 0.910217 23.1678Z" fill="#2965F1" stroke="white" stroke-width="0.5"/>
<path d="M5.24929 9.17155C2.84865 9.17155 0.910217 7.22345 0.910217 4.83248C0.910217 2.43147 2.84828 0.493408 5.24929 0.493408H9.58836V9.17155H5.24929Z" fill="#2965F1" stroke="white" stroke-width="0.5"/>
<path d="M5.24929 18.3392C2.84865 18.3392 0.910217 16.3911 0.910217 14.0001C0.910217 11.6091 2.84865 9.66101 5.24929 9.66101H9.58836V18.3392H5.24929Z" fill="#2965F1" stroke="white" stroke-width="0.5"/>
</svg>
