<svg width="41" height="29" viewBox="0 0 41 29" fill="none" xmlns="http://www.w3.org/2000/svg">
<mask id="path-1-inside-1_9114_162" fill="white">
<path d="M30.5498 24.9952C35.1785 31.4754 42.4893 26.6895 40.733 20.3665C38.0952 10.8704 36.6599 5.5833 35.9134 2.79193C35.4742 1.15045 33.9865 0 32.2872 0H8.4458C6.74663 0 5.26576 1.15683 4.8526 2.80502C3.29855 9.00473 1.91197 14.4446 0.267004 20.3665C-1.48942 26.6895 5.82149 31.4754 10.4502 24.9952"/>
</mask>
<path d="M32.5841 23.5421C31.7816 22.4186 30.2202 22.1583 29.0967 22.9609C27.9732 23.7634 27.7129 25.3248 28.5155 26.4483L32.5841 23.5421ZM40.733 20.3665L43.1418 19.6974L43.1418 19.6973L40.733 20.3665ZM35.9134 2.79193L38.3285 2.14603L38.3284 2.14578L35.9134 2.79193ZM4.8526 2.80502L2.42763 2.19713L2.42763 2.19716L4.8526 2.80502ZM0.267004 20.3665L2.6758 21.0356L2.6758 21.0356L0.267004 20.3665ZM12.4846 26.4483C13.2871 25.3248 13.0269 23.7634 11.9033 22.9609C10.7798 22.1583 9.21842 22.4186 8.4159 23.5421L12.4846 26.4483ZM28.5155 26.4483C29.9406 28.4435 31.7135 29.7595 33.6712 30.3037C35.6313 30.8485 37.5867 30.5628 39.2205 29.6835C42.4783 27.9303 44.3194 23.937 43.1418 19.6974L38.3242 21.0355C38.9029 23.119 37.9669 24.6801 36.8511 25.2806C36.2982 25.5781 35.6677 25.6691 35.0102 25.4863C34.3501 25.3028 33.4733 24.787 32.5841 23.5421L28.5155 26.4483ZM43.1418 19.6973C40.5052 10.2057 39.0722 4.92695 38.3285 2.14603L33.4983 3.43782C34.2476 6.23964 35.6852 11.535 38.3242 21.0356L43.1418 19.6973ZM38.3284 2.14578C37.599 -0.580679 35.1271 -2.5 32.2872 -2.5V2.5C32.846 2.5 33.3494 2.88157 33.4983 3.43807L38.3284 2.14578ZM32.2872 -2.5H8.4458V2.5H32.2872V-2.5ZM8.4458 -2.5C5.59863 -2.5 3.11924 -0.561838 2.42763 2.19713L7.27757 3.4129C7.41229 2.8755 7.89462 2.5 8.4458 2.5V-2.5ZM2.42763 2.19716C0.874697 8.3924 -0.505632 13.8072 -2.14179 19.6973L2.6758 21.0356C4.32956 15.0821 5.7224 9.61707 7.27758 3.41287L2.42763 2.19716ZM-2.14179 19.6973C-3.31948 23.937 -1.4783 27.9303 1.77944 29.6835C3.41332 30.5628 5.36868 30.8485 7.32886 30.3037C9.28649 29.7595 11.0594 28.4435 12.4846 26.4483L8.4159 23.5421C7.52668 24.787 6.64996 25.3028 5.98985 25.4863C5.33229 25.6691 4.70181 25.5781 4.14892 25.2806C3.03313 24.6801 2.09706 23.119 2.6758 21.0356L-2.14179 19.6973Z" fill="#2965F1" mask="url(#path-1-inside-1_9114_162)"/>
<mask id="path-3-inside-2_9114_162" fill="white">
<path d="M27.7726 0V3.70299C27.7726 5.7481 26.1147 7.40598 24.0696 7.40598H16.6636C14.6185 7.40598 12.9606 5.7481 12.9606 3.70299V0"/>
</mask>
<path d="M30.2726 0C30.2726 -1.38071 29.1533 -2.5 27.7726 -2.5C26.3919 -2.5 25.2726 -1.38071 25.2726 0H30.2726ZM15.4606 0C15.4606 -1.38071 14.3413 -2.5 12.9606 -2.5C11.5799 -2.5 10.4606 -1.38071 10.4606 0H15.4606ZM25.2726 0V3.70299H30.2726V0H25.2726ZM25.2726 3.70299C25.2726 4.36741 24.734 4.90598 24.0696 4.90598V9.90598C27.4955 9.90598 30.2726 7.12879 30.2726 3.70299H25.2726ZM24.0696 4.90598H16.6636V9.90598H24.0696V4.90598ZM16.6636 4.90598C15.9992 4.90598 15.4606 4.36739 15.4606 3.70299H10.4606C10.4606 7.12881 13.2378 9.90598 16.6636 9.90598V4.90598ZM15.4606 3.70299V0H10.4606V3.70299H15.4606Z" fill="#2965F1" mask="url(#path-3-inside-2_9114_162)"/>
<path d="M15.4136 18.515C15.4136 19.8698 14.3153 20.968 12.9606 20.968C11.6058 20.968 10.5076 19.8698 10.5076 18.515C10.5076 17.1602 11.6058 16.062 12.9606 16.062C14.3153 16.062 15.4136 17.1602 15.4136 18.515Z" stroke="#2965F1" stroke-width="2.5" stroke-linecap="round" stroke-linejoin="round"/>
<path d="M30.2256 18.515C30.2256 19.8698 29.1274 20.968 27.7726 20.968C26.4178 20.968 25.3196 19.8698 25.3196 18.515C25.3196 17.1602 26.4178 16.062 27.7726 16.062C29.1274 16.062 30.2256 17.1602 30.2256 18.515Z" stroke="#2965F1" stroke-width="2.5" stroke-linecap="round" stroke-linejoin="round"/>
</svg>
