<svg width="30" height="28" viewBox="0 0 30 28" fill="none" xmlns="http://www.w3.org/2000/svg">
<path d="M5.69333 0.23291H24.0492C26.8321 0.23291 29.0822 2.48298 29.0822 5.26596V22.9112C29.0822 25.6942 26.8321 27.9443 24.0492 27.9443H5.69333C2.91035 27.9443 0.660278 25.6942 0.660278 22.9112V5.26596C0.660278 2.48298 2.91035 0.23291 5.69333 0.23291Z" fill="#2965F1"/>
<path d="M14.3976 16.8124H9.99219L9.09216 19.5954C9.06848 19.7019 8.97374 19.773 8.86715 19.7611H6.64077C6.5105 19.7611 6.47497 19.6901 6.5105 19.548L10.3238 8.57001C10.3593 8.45158 10.3948 8.32132 10.4422 8.17921C10.4896 7.93051 10.5133 7.66998 10.5133 7.40945C10.5014 7.35023 10.5488 7.29102 10.608 7.27918H13.6752C13.7699 7.27918 13.8173 7.31471 13.8292 7.37392L18.1517 19.5717C18.1872 19.7019 18.1517 19.7611 18.0332 19.7611H15.5582C15.4753 19.773 15.3924 19.7138 15.3687 19.6309L14.3976 16.8124ZM10.6791 14.4083H13.687C13.616 14.1597 13.5212 13.8636 13.4147 13.5557C13.3081 13.2359 13.2015 12.8925 13.0949 12.5372C12.9765 12.1701 12.8699 11.8148 12.7515 11.4477C12.6331 11.0806 12.5265 10.7372 12.4317 10.3937C12.337 10.0622 12.2541 9.75426 12.1712 9.47004H12.1475C12.0409 9.97926 11.9107 10.4885 11.7449 10.9977C11.5672 11.5662 11.3896 12.1583 11.2001 12.7504C11.0343 13.3544 10.8567 13.911 10.6791 14.4083ZM20.7925 9.35161C20.4017 9.36345 20.0228 9.2095 19.7385 8.93712C19.4662 8.64106 19.3241 8.25026 19.3359 7.84762C19.3241 7.44497 19.478 7.06601 19.7622 6.79364C20.0465 6.52126 20.4254 6.37915 20.8162 6.37915C21.2781 6.37915 21.6333 6.52126 21.8939 6.79364C22.1544 7.07786 22.2965 7.45682 22.2847 7.84762C22.2965 8.25026 22.1544 8.64106 21.8702 8.93712C21.5978 9.22134 21.1952 9.3753 20.7925 9.35161ZM19.4662 19.6309V10.5122C19.4662 10.3937 19.5135 10.3464 19.6201 10.3464H21.9649C22.0715 10.3464 22.1189 10.4056 22.1189 10.5122V19.6309C22.1189 19.7611 22.0715 19.8204 21.9649 19.8204H19.6438C19.5254 19.8204 19.4662 19.7493 19.4662 19.6309Z" fill="white"/>
</svg>
