<svg width="29" height="28" viewBox="0 0 29 28" fill="none" xmlns="http://www.w3.org/2000/svg">
<path d="M0.660248 0.23291H28.3534V27.9261H0.660248V0.23291Z" fill="#2965F1"/>
<path d="M26.0868 21.3212C25.8841 20.0577 25.0602 18.9968 22.6199 18.007C21.7723 17.6174 20.8272 17.3384 20.5455 16.6961C20.4455 16.3223 20.4323 16.1117 20.4955 15.8853C20.6772 15.1508 21.5538 14.9218 22.2487 15.1324C22.6962 15.2824 23.1201 15.6273 23.3754 16.1775C24.5705 15.4036 24.5679 15.4088 25.4024 14.8771C25.097 14.4032 24.9338 14.1847 24.7337 13.9821C24.0151 13.1792 23.0358 12.7659 21.4695 12.7975C21.1984 12.8317 20.9246 12.8685 20.6535 12.9028C19.8717 13.1002 19.1267 13.5109 18.6897 14.061C17.3787 15.5483 17.7525 18.1518 19.3478 19.2232C20.9193 20.4025 23.228 20.6711 23.5228 21.774C23.8098 23.1245 22.5304 23.5614 21.2589 23.4061C20.3218 23.2113 19.8006 22.7349 19.2372 21.8688C18.2001 22.469 18.2001 22.469 17.1339 23.0824C17.3867 23.6352 17.6525 23.8853 18.0764 24.3644C20.0823 26.3992 25.1023 26.2992 26.0026 23.2192C26.0394 23.1139 26.2816 22.4084 26.0868 21.3212ZM15.715 12.9606H13.1247C13.1247 15.1982 13.1142 17.42 13.1142 19.6575C13.1142 21.0817 13.1879 22.3874 12.9563 22.7875C12.5772 23.5746 11.5953 23.4772 11.1478 23.3245C10.6924 23.1007 10.4607 22.7822 10.1922 22.3321C10.1185 22.2031 10.0632 22.1031 10.0448 22.0952C9.34195 22.5243 8.6417 22.9559 7.93884 23.3851C8.28898 24.1037 8.80491 24.7276 9.46565 25.133C10.4528 25.7253 11.7796 25.9069 13.1669 25.5884C14.0698 25.3251 14.849 24.7802 15.257 23.951C15.8467 22.8638 15.7203 21.5476 15.715 20.0919C15.7282 17.7174 15.715 15.343 15.715 12.9606Z" fill="white"/>
</svg>
