<svg width="29" height="28" viewBox="0 0 29 28" fill="none" xmlns="http://www.w3.org/2000/svg">
<path d="M5.6593 0.23291H23.891C26.6552 0.23291 28.8901 2.46777 28.8901 5.23194V22.7579C28.8901 25.5221 26.6552 27.757 23.891 27.757H5.6593C2.89514 27.757 0.660278 25.5221 0.660278 22.7579V5.23194C0.660278 2.46777 2.89514 0.23291 5.6593 0.23291Z" fill="#2965F1"/>
<path d="M7.01208 19.5351V7.43153C7.01208 7.34919 7.04737 7.30214 7.12971 7.30214C7.32967 7.30214 7.51787 7.30214 7.7884 7.29038C8.0707 7.27862 8.36476 7.27862 8.68235 7.26685C8.99993 7.25509 9.34104 7.25509 9.70568 7.24333C10.0703 7.23157 10.4232 7.23157 10.7761 7.23157C11.7406 7.23157 12.5404 7.34919 13.1991 7.5962C13.7872 7.79616 14.3283 8.12551 14.7753 8.56072C15.1517 8.93712 15.4457 9.39585 15.6339 9.90163C15.8104 10.3957 15.9045 10.9014 15.9045 11.4307C15.9045 12.4423 15.6692 13.2774 15.1987 13.9361C14.7282 14.5948 14.0695 15.0889 13.305 15.3712C12.5051 15.6652 11.623 15.7711 10.6584 15.7711C10.3761 15.7711 10.1879 15.7711 10.0703 15.7593C9.95269 15.7476 9.78801 15.7476 9.56453 15.7476V19.5233C9.57629 19.6056 9.51748 19.6762 9.43514 19.688H7.15323C7.05913 19.688 7.01208 19.6409 7.01208 19.5351ZM9.57629 9.57229V13.5245C9.74096 13.5362 9.89388 13.548 10.035 13.548H10.6584C11.1172 13.548 11.5759 13.4774 12.0111 13.3363C12.3875 13.2304 12.7169 13.0069 12.9756 12.7129C13.2226 12.4188 13.3403 12.0189 13.3403 11.5013C13.352 11.1367 13.2579 10.7721 13.0697 10.4545C12.8698 10.1486 12.5875 9.9134 12.2464 9.78401C11.8111 9.60757 11.3407 9.537 10.8584 9.54876C10.5526 9.54876 10.282 9.54876 10.0585 9.56053C9.8233 9.54876 9.65863 9.56052 9.57629 9.57229ZM23.2442 12.807C22.8913 12.6188 22.5149 12.4894 22.115 12.407C21.6798 12.3129 21.2446 12.2541 20.7976 12.2541C20.5624 12.2424 20.3154 12.2776 20.0919 12.3365C19.939 12.3717 19.8096 12.4541 19.7273 12.5717C19.6684 12.6658 19.6332 12.7834 19.6332 12.8893C19.6332 12.9951 19.6802 13.101 19.7508 13.1951C19.8566 13.3245 19.9978 13.4304 20.1507 13.5127C20.4212 13.6538 20.7035 13.7832 20.9858 13.9009C21.621 14.1126 22.2326 14.4066 22.7972 14.7595C23.1854 15.0065 23.503 15.3359 23.7265 15.7358C23.9147 16.1122 24.0088 16.5239 23.997 16.9473C24.0088 17.5002 23.8441 18.053 23.5383 18.5117C23.2089 18.9822 22.7502 19.3469 22.2209 19.5586C21.6445 19.8056 20.9388 19.935 20.0919 19.935C19.5508 19.935 19.0215 19.8879 18.4922 19.7821C18.0805 19.7115 17.6688 19.5821 17.2924 19.4057C17.2101 19.3586 17.1513 19.2763 17.163 19.1822V17.1355C17.163 17.1002 17.1748 17.0532 17.2101 17.0297C17.2454 17.0061 17.2807 17.0179 17.316 17.0414C17.7747 17.312 18.257 17.5002 18.7745 17.6178C19.2215 17.7354 19.692 17.7942 20.1625 17.7942C20.6094 17.7942 20.927 17.7354 21.1387 17.6295C21.3269 17.5472 21.4563 17.3472 21.4563 17.1355C21.4563 16.9708 21.3622 16.8179 21.174 16.665C20.9858 16.5121 20.5977 16.3357 20.0213 16.1122C19.4214 15.9005 18.8686 15.6182 18.351 15.2653C17.9864 15.0065 17.6806 14.6654 17.4571 14.2655C17.2689 13.8891 17.1748 13.4774 17.1866 13.0657C17.1866 12.5599 17.3277 12.0777 17.5865 11.6425C17.8806 11.172 18.3158 10.7956 18.8215 10.5603C19.3744 10.278 20.0684 10.1486 20.9035 10.1486C21.3858 10.1486 21.8798 10.1839 22.362 10.2545C22.7149 10.3016 23.056 10.3957 23.3736 10.525C23.4206 10.5368 23.4677 10.5839 23.4912 10.6309C23.503 10.678 23.5147 10.725 23.5147 10.7721V12.6893C23.5147 12.7364 23.4912 12.7834 23.4559 12.807C23.3501 12.8305 23.2913 12.8305 23.2442 12.807Z" fill="white"/>
</svg>
