<svg width="29" height="29" viewBox="0 0 29 29" fill="none" xmlns="http://www.w3.org/2000/svg">
<path d="M14.5281 0.23291C7.43597 0.23291 7.87879 3.30849 7.87879 3.30849L7.88666 6.49489H14.6546V7.45153H5.19855C5.19855 7.45153 0.660278 6.93684 0.660278 14.0928C0.660278 21.2489 4.6214 20.9951 4.6214 20.9951H6.98538V17.6744C6.98538 17.6744 6.85793 13.7133 10.8833 13.7133H17.5958C17.5958 13.7133 21.3672 13.7742 21.3672 10.0684V3.94111C21.3672 3.94111 21.9399 0.23291 14.5281 0.23291ZM10.7963 2.3757C10.9562 2.37555 11.1146 2.40695 11.2624 2.46809C11.4102 2.52922 11.5445 2.6189 11.6575 2.73199C11.7706 2.84508 11.8603 2.97935 11.9215 3.12714C11.9826 3.27492 12.014 3.43331 12.0138 3.59324C12.014 3.75317 11.9826 3.91156 11.9215 4.05935C11.8603 4.20713 11.7706 4.34141 11.6575 4.4545C11.5445 4.56758 11.4102 4.65726 11.2624 4.7184C11.1146 4.77953 10.9562 4.81093 10.7963 4.81078C10.6364 4.81093 10.478 4.77953 10.3302 4.7184C10.1824 4.65726 10.0481 4.56758 9.93504 4.4545C9.82195 4.34141 9.73228 4.20713 9.67114 4.05935C9.61 3.91156 9.57861 3.75317 9.57875 3.59324C9.57861 3.43331 9.61 3.27492 9.67114 3.12714C9.73228 2.97935 9.82195 2.84508 9.93504 2.73199C10.0481 2.6189 10.1824 2.52922 10.3302 2.46809C10.478 2.40695 10.6364 2.37555 10.7963 2.3757Z" fill="#2965F1"/>
<path d="M14.7296 28.0246C21.8217 28.0246 21.3789 24.949 21.3789 24.949L21.371 21.7627H14.603V20.8061H24.059C24.059 20.8061 28.5973 21.3208 28.5973 14.1646C28.5973 7.00855 24.6362 7.26234 24.6362 7.26234H22.2722V10.583C22.2722 10.583 22.3996 14.5441 18.3743 14.5441H11.6617C11.6617 14.5441 7.89042 14.4832 7.89042 18.1891V24.3165C7.89042 24.3165 7.31775 28.0246 14.7294 28.0246H14.7296ZM18.4614 25.882C18.3015 25.8821 18.1431 25.8508 17.9953 25.7896C17.8475 25.7285 17.7132 25.6388 17.6001 25.5257C17.487 25.4126 17.3974 25.2783 17.3362 25.1306C17.2751 24.9828 17.2437 24.8244 17.2438 24.6645C17.2437 24.5045 17.2751 24.3461 17.3362 24.1983C17.3973 24.0505 17.487 23.9162 17.6001 23.8031C17.7132 23.69 17.8475 23.6003 17.9953 23.5392C18.143 23.4781 18.3014 23.4467 18.4614 23.4468C18.6213 23.4467 18.7797 23.4781 18.9275 23.5392C19.0753 23.6003 19.2096 23.69 19.3226 23.8031C19.4357 23.9162 19.5254 24.0505 19.5865 24.1982C19.6477 24.346 19.6791 24.5044 19.6789 24.6643C19.6791 24.8243 19.6477 24.9827 19.5865 25.1305C19.5254 25.2782 19.4357 25.4125 19.3226 25.5256C19.2096 25.6387 19.0753 25.7284 18.9275 25.7895C18.7797 25.8506 18.6213 25.8821 18.4614 25.882Z" fill="#2965F1"/>
</svg>
